inDegrees=yes
name=IK-live
DataType=double
version=3
OpenSimVersion=4.1
endheader
time	pelvis_tilt	pelvis_list	pelvis_rotation	pelvis_tx	pelvis_ty	pelvis_tz	hip_flexion_r	hip_adduction_r	hip_rotation_r	knee_angle_r	ankle_angle_r	subtalar_angle_r	mtp_angle_r	hip_flexion_l	hip_adduction_l	hip_rotation_l	knee_angle_l	ankle_angle_l	subtalar_angle_l	mtp_angle_l	lumbar_extension	lumbar_bending	lumbar_rotation	neck_flex	neck_latbend	neck_rot	arm_flex_r	arm_add_r	arm_rot_r	elbow_flex_r	pro_sup_r	wrist_flex_r	wrist_dev_r	arm_flex_l	arm_add_l	arm_rot_l	elbow_flex_l	pro_sup_l	wrist_flex_l	wrist_dev_l
10.8253014	23.3525267128182	34.0684557224634	-263.5671075513643	0.2341366603171506	0.04326292228651554	-1.326684523481465	-22.57117169827992	-1.591976316804377	-3.241458145969817	5.899560354604904	2.451982624139334	1.987972377786656	0	-24.74788768789517	-3.395140484746916	-11.58000132048591	9.793848132074926	-0.4439473045988533	4.250290820099795	0	-21.37711699760957	1.659277491615732	3.206407148933037	0	0	0	0.7853419734385405	-15.17648004708573	33.30472110169194	7.098099956658522	24.8912725598387	0	0.02020718063931291	5.875858614774719	-13.23001761455949	43.88893868307083	6.91518645633457	33.48852509430092	0	0.02020718063931291
10.9772044	23.47752344755065	33.82287625262049	-263.7966664707401	0.2341366603171506	0.04326292228651554	-1.326684523481465	-22.57117169827992	-1.591976316804377	-3.241458145969817	5.899560354604904	2.451982624139334	1.987972377786656	0	-24.74788768789517	-3.395140484746916	-11.58000132048591	9.793848132074926	-0.4439473045988533	4.250290820099795	0	-21.37711699760957	1.659277491615732	3.206407148933037	0	0	0	0.7853436843651354	-15.17648003974521	33.30471899295994	7.098112454543309	24.89127715887195	0	0.02020910847854646	5.875860175701997	-13.23001768819898	43.88893559420993	6.915198866115334	33.4885274625547	0	0.02020910847854646
11.1391927	23.57616080335353	33.83754897720458	-264.0401493919072	0.2341366603171506	0.04326292228651554	-1.326684523481465	-22.57117169827992	-1.591976316804377	-3.241458145969817	5.899560354604904	2.451982624139334	1.987972377786656	0	-24.74788768789517	-3.395140484746916	-11.58000132048591	9.793848132074926	-0.4439473045988533	4.250290820099795	0	-21.37711699760957	1.659277491615732	3.206407148933037	0	0	0	0.7853489019215897	-15.17648001686471	33.30471218483414	7.098204663522017	24.89129485118017	0	0.02021721434562365	5.875864924190295	-13.23001791774031	43.88892543731541	6.915293451417953	33.4885361456064	0	0.02021721434562365
11.2990353	23.55002526208438	33.82817201804827	-264.0095910128875	0.2341366603171506	0.04326292228651554	-1.326684523481465	-22.57117169827992	-1.591976316804377	-3.241458145969817	5.899560354604904	2.451982624139334	1.987972377786656	0	-24.74788768789517	-3.395140484746916	-11.58000132048591	9.793848132074926	-0.4439473045988533	4.250290820099795	0	-21.37711699760957	1.659277491615732	3.206407148933037	0	0	0	0.7853461349670546	-15.17648002899207	33.30471579086338	7.098155483866851	24.89128550160545	0	0.02021293519699164	5.875862405850789	-13.23001779607652	43.8889308155152	6.9152429650617	33.48853155563891	0	0.02021293519699164
11.4519081	12.80654263344709	31.1693562547579	-254.3431908696554	0.2341366603171506	0.04326292228651554	-1.326684523481465	-22.57117169827992	-1.591976316804377	-3.241458145969817	5.899560354604904	2.451982624139334	1.987972377786656	0	-24.74788768789517	-3.395140484746916	-11.58000132048591	9.793848132074926	-0.4439473045988533	4.250290820099795	0	-21.37711699760957	1.659277491615732	3.206407148933037	0	0	0	0.7837573179330106	-15.17648698905763	33.3067837834719	7.070155558942441	24.88594006863379	0	0.01776963266227808	5.874416261227124	-13.22994797150962	43.89201399585487	6.886500416792677	33.48590545742972	0	0.01776963266227808
11.6119033	-25.87881406293768	-0.7728762282590955	-226.8051423561241	0.2341366603171506	0.04326292228651554	-1.326684523481465	-22.57117169827992	-1.591976316804377	-3.241458145969817	5.899560354604904	2.451982624139334	1.987972377786656	0	-24.74788768789517	-3.395140484746916	-11.58000132048591	9.793848132074926	-0.4439473045988533	4.250290820099795	0	-21.37711699760957	1.659277491615732	3.206407148933037	0	0	0	0.7844709132672163	-15.17648385866519	33.30585249308449	7.082425670495416	24.8883470360592	0	0.01886851809124546	5.87506565109135	-13.22997937618376	43.89062505423954	6.899075957931124	33.48708885254948	0	0.01886851809124546
11.7647977	-34.48632728193362	-14.65892080786518	-224.2847731069726	0.2341366603171506	0.04326292228651554	-1.326684523481465	-22.57117169827992	-1.591976316804377	-3.241458145969817	5.899560354604904	2.451982624139334	1.987972377786656	0	-24.74788768789517	-3.395140484746916	-11.58000132048591	9.793848132074926	-0.4439473045988533	4.250290820099795	0	-21.37711699760957	1.659277491615732	3.206407148933037	0	0	0	0.7874564478004602	-15.17647077214777	33.30196062073065	7.136184377066997	24.89844520240425	0	0.02349102203466872	5.87778287566778	-13.23011066246335	43.88481994440529	6.954302342020524	33.49204447489328	0	0.02349102203466872
11.9266163	-43.36082416039638	-29.47423827000845	-223.2211267569333	0.2341366603171506	0.04326292228651554	-1.326684523481465	-22.57117169827992	-1.591976316804377	-3.241458145969817	5.899560354604904	2.451982624139334	1.987972377786656	0	-24.74788768789517	-3.395140484746916	-11.58000132048591	9.793848132074926	-0.4439473045988533	4.250290820099795	0	-21.37711699760957	1.659277491615732	3.206407148933037	0	0	0	0.7865070194715443	-15.17647490892581	33.30317988231289	7.121617562364078	24.89540001007558	0	0.02211987522147115	5.876918155940666	-13.23006916186879	43.88663050796997	6.939401855446851	33.49053525100717	0	0.02211987522147115
12.0866095	-32.38371593787186	-5.564213997184253	-231.4297942569333	0.2341366603171506	0.04326292228651554	-1.326684523481465	-22.57117169827992	-1.591976316804377	-3.241458145969817	5.899560354604904	2.451982624139334	1.987972377786656	0	-24.74788768789517	-3.395140484746916	-11.58000132048591	9.793848132074926	-0.4439473045988533	4.250290820099795	0	-21.37711699760957	1.659277491615732	3.206407148933037	0	0	0	0.7875014363878281	-15.17647058391498	33.30190859615077	7.136166787191123	24.8985378313611	0	0.02352525414208247	5.877824041925535	-13.23011255074018	43.88474524155263	6.954268333683894	33.49209515396702	0	0.02352525414208247
12.2394912	-11.25621305038618	19.59451932774906	-255.1779550519369	0.2341366603171506	0.04326292228651554	-1.326684523481465	-22.57117169827992	-1.591976316804377	-3.241458145969817	5.899560354604904	2.451982624139334	1.987972377786656	0	-24.74788768789517	-3.395140484746916	-11.58000132048591	9.793848132074926	-0.4439473045988533	4.250290820099795	0	-21.37711699760957	1.659277491615732	3.206407148933037	0	0	0	0.7820498580953889	-15.1764944602109	33.30900016459137	7.040495920910451	24.88024273795771	0	0.01517126700528611	5.872861910541516	-13.22987301972229	43.89531605346311	6.856054802442677	33.48310304885935	0	0.01517126700528611
12.4003676	12.36715941930296	25.25160209416907	79.82657179467462	0.2341366603171506	0.04326292228651554	-1.326684523481465	-22.57117169827992	-1.591976316804377	-3.241458145969817	5.899560354604904	2.451982624139334	1.987972377786656	0	-24.74788768789517	-3.395140484746916	-11.58000132048591	9.793848132074926	-0.4439473045988533	4.250290820099795	0	-21.37711699760957	1.659277491615732	3.206407148933037	0	0	0	0.7837599786654458	-15.17648697258735	33.30677689578539	7.070881632564705	24.88597595085862	0	0.01778872024592763	5.874418540003862	-13.22994813680287	43.89200229588869	6.887275873105784	33.48592044301521	0	0.01778872024592763
13.4237709	-15.55745258461314	-24.56325361916642	-181.2445300386524	0.2341366603171506	0.04326292228651554	-1.326684523481465	-22.57117169827992	-1.591976316804377	-3.241458145969817	5.899560354604904	2.451982624139334	1.987972377786656	0	-24.74788768789517	-3.395140484746916	-11.58000132048591	9.793848132074926	-0.4439473045988533	4.250290820099795	0	-21.37711699760957	1.659277491615732	3.206407148933037	0	0	0	0.7842142988559418	-15.17648496387814	33.3061725717096	7.079754771630285	24.88760765414201	0	0.01854733141064474	5.874831606850101	-13.22996828872769	43.89109618543566	6.896379927184465	33.48671459729324	0	0.01854733141064474
16.3372733	11.6233774524797	-13.94014469528693	-72.17847800696268	0.2341366603171506	0.04326292228651554	-1.326684523481465	-22.57117169827992	-1.591976316804377	-3.241458145969817	5.899560354604904	2.451982624139334	1.987972377786656	0	-24.74788768789517	-3.395140484746916	-11.58000132048591	9.793848132074926	-0.4439473045988533	4.250290820099795	0	-21.37711699760957	1.659277491615732	3.206407148933037	0	0	0	0.7730319194057946	-15.1765339286093	33.32071178769242	6.881322119858725	24.85013554445527	0	0.001447113092167723	5.864653055596683	-13.22947706639547	43.91276637428881	6.692489298462772	33.46829716303691	0	0.001447113092167723
16.7770096	-9.446029731595857	-9.209935393371051	-129.8964020456795	0.2341366603171506	0.04326292228651554	-1.326684523481465	-22.57117169827992	-1.591976316804377	-3.241458145969817	5.899560354604904	2.451982624139334	1.987972377786656	0	-24.74788768789517	-3.395140484746916	-11.58000132048591	9.793848132074926	-0.4439473045988533	4.250290820099795	0	-21.37711699760957	1.659277491615732	3.206407148933037	0	0	0	0.7727765069204136	-15.17653503367961	33.32103554887645	6.87696523503238	24.8493216581093	0	0.001076880433821497	5.864420186210861	-13.22946598028972	43.91324646508062	6.688006647747905	33.46789576486292	0	0.001076880433821497
17.2877001	-16.80763357413857	1.910700158727411	-199.6865135767912	0.2341366603171506	0.04326292228651554	-1.326684523481465	-22.57117169827992	-1.591976316804377	-3.241458145969817	5.899560354604904	2.451982624139334	1.987972377786656	0	-24.74788768789517	-3.395140484746916	-11.58000132048591	9.793848132074926	-0.4439473045988533	4.250290820099795	0	-21.37711699760957	1.659277491615732	3.206407148933037	0	0	0	0.780782356764213	-15.17650000525408	33.31064493348828	7.01790098401601	24.87601448997994	0	0.01324329363077259	5.871708063567846	-13.22981739097857	43.8977665124394	6.832821759574464	33.48102427646309	0	0.01324329363077259
17.7384268	-18.83833902041734	6.6507019791179	-242.6272018895883	0.2341366603171506	0.04326292228651554	-1.326684523481465	-22.57117169827992	-1.591976316804377	-3.241458145969817	5.899560354604904	2.451982624139334	1.987972377786656	0	-24.74788768789517	-3.395140484746916	-11.58000132048591	9.793848132074926	-0.4439473045988533	4.250290820099795	0	-21.37711699760957	1.659277491615732	3.206407148933037	0	0	0	0.7834051917833099	-15.17648852610238	33.30723867436252	7.06386748984308	24.88477288880375	0	0.01723683029692501	5.874095605078348	-13.22993255167163	43.89269120077029	6.88003258054929	33.48533170894489	0	0.01723683029692501
18.4620317	-9.881291619060617	-0.7180683729841436	-149.4798718987335	0.2341366603171506	0.04326292228651554	-1.326684523481465	-22.57117169827992	-1.591976316804377	-3.241458145969817	5.899560354604904	2.451982624139334	1.987972377786656	0	-24.74788768789517	-3.395140484746916	-11.58000132048591	9.793848132074926	-0.4439473045988533	4.250290820099795	0	-21.37711699760957	1.659277491615732	3.206407148933037	0	0	0	0.7755288933767849	-15.17652299259422	33.31746444534391	6.925295114274646	24.85848824339427	0	0.005253484599199678	5.866925773671978	-13.22958677833856	43.90792673019245	6.73766519893905	33.47240509992218	0	0.005253484599199678
